<svg width="1600" height="900" viewBox="0 0 1600 900" fill="none" xmlns="http://www.w3.org/2000/svg">
  <defs>
    <linearGradient id="paper" x1="0" y1="0" x2="1600" y2="900" gradientUnits="userSpaceOnUse">
      <stop stop-color="#F8F3EA"/>
      <stop offset="1" stop-color="#EFE7DA"/>
    </linearGradient>
    <linearGradient id="inkFade" x1="0" y1="0" x2="0" y2="900" gradientUnits="userSpaceOnUse">
      <stop stop-color="#141414" stop-opacity="0"/>
      <stop offset="1" stop-color="#141414" stop-opacity="0.58"/>
    </linearGradient>
    <linearGradient id="warmFade" x1="0" y1="0" x2="1" y2="1">
      <stop stop-color="#D9481E" stop-opacity="0.2"/>
      <stop offset="1" stop-color="#D9481E" stop-opacity="0"/>
    </linearGradient>
    <clipPath id="mainImageClip">
      <rect x="870" y="92" width="650" height="716" rx="30"/>
    </clipPath>
    <clipPath id="smallImageClip">
      <rect x="1078" y="112" width="390" height="180" rx="22"/>
    </clipPath>
  </defs>

  <rect width="1600" height="900" fill="url(#paper)"/>
  <rect x="0" y="0" width="1600" height="900" fill="url(#warmFade)"/>

  <circle cx="176" cy="142" r="18" fill="#D9481E"/>
  <circle cx="212" cy="142" r="18" fill="#F3B38C"/>
  <circle cx="248" cy="142" r="18" fill="#141414" fill-opacity="0.14"/>

  <g clip-path="url(#mainImageClip)">
    <image href="/images/blog/color-systems-signal-noise/color-systems-scopes-rule.jpeg" x="870" y="92" width="650" height="716" preserveAspectRatio="xMidYMid slice"/>
    <rect x="870" y="92" width="650" height="716" fill="url(#inkFade)"/>
  </g>

  <rect x="870" y="92" width="650" height="716" rx="30" stroke="#E2D8CA" stroke-width="2"/>

  <g clip-path="url(#smallImageClip)">
    <image href="/images/blog/color-systems-signal-noise/signal-vs-noise-deliverables.jpeg" x="1078" y="112" width="390" height="180" preserveAspectRatio="xMidYMid slice"/>
    <rect x="1078" y="112" width="390" height="180" fill="#111111" fill-opacity="0.18"/>
  </g>

  <rect x="1078" y="112" width="390" height="180" rx="22" stroke="#F4EADF" stroke-opacity="0.7" stroke-width="2"/>

  <rect x="960" y="630" width="314" height="62" rx="31" fill="#141414"/>
  <text x="1117" y="669" text-anchor="middle" fill="#F8F3EA" font-family="IBM Plex Mono, Menlo, monospace" font-size="27" letter-spacing="1.2">learn the why</text>

  <path d="M1288 684H1454" stroke="#F8F3EA" stroke-width="2" stroke-opacity="0.68"/>
  <path d="M1288 646H1454" stroke="#F8F3EA" stroke-width="2" stroke-opacity="0.34"/>

  <text x="96" y="202" fill="#7F7269" font-family="IBM Plex Mono, Menlo, monospace" font-size="28" letter-spacing="3.4">COURSE NOTE / COLOUR / POST</text>

  <text x="94" y="380" fill="#141414" font-family="Instrument Sans, Arial, sans-serif" font-size="126" font-weight="700" letter-spacing="-8">Stop</text>
  <text x="94" y="488" fill="#141414" font-family="Instrument Sans, Arial, sans-serif" font-size="126" font-weight="700" letter-spacing="-8">Guessing</text>
  <text x="94" y="562" fill="#6E645C" font-family="IBM Plex Mono, Menlo, monospace" font-size="31" letter-spacing="1.5">WITH COLOUR</text>

  <text x="94" y="670" fill="#25201C" font-family="Instrument Sans, Arial, sans-serif" font-size="56" font-weight="500" letter-spacing="-2.8">Learn to grade</text>
  <text x="94" y="732" fill="#25201C" font-family="Instrument Sans, Arial, sans-serif" font-size="56" font-weight="500" letter-spacing="-2.8">with intention.</text>

  <line x1="96" y1="790" x2="776" y2="790" stroke="#D8CCBE" stroke-width="2"/>
  <text x="96" y="836" fill="#7C7067" font-family="IBM Plex Mono, Menlo, monospace" font-size="27" letter-spacing="1.2">SIGNAL TO NOISE</text>
  <circle cx="386" cy="825" r="4" fill="#B9ABA0"/>
  <text x="410" y="836" fill="#7C7067" font-family="IBM Plex Mono, Menlo, monospace" font-size="27" letter-spacing="1.2">COLOR SYSTEMS</text>
</svg>
